<svg xmlns="http://www.w3.org/2000/svg" version="1.1" xmlns:xlink="http://www.w3.org/1999/xlink" xmlns:svgjs="http://svgjs.dev/svgjs" width="1024" height="1024"><svg width="1024" height="1024" viewBox="0 0 1024 1024" fill="none" xmlns="http://www.w3.org/2000/svg">
<path d="M504.827 992V32H602.859V992H504.827ZM572.971 862.884C494.864 862.884 425.923 849.335 366.147 822.237C306.371 794.341 259.746 754.491 226.272 702.685C192.797 650.082 176.06 587.118 176.06 513.793C176.06 439.671 194.391 376.707 231.054 324.902C267.716 272.299 317.131 232.448 379.298 205.35C442.262 177.455 511.602 163.507 587.318 163.507C640.717 163.507 688.538 172.274 730.78 189.808C773.818 207.342 809.684 230.057 838.376 257.953L755.885 366.745C731.178 344.428 705.674 328.887 679.372 320.12C653.071 311.352 625.574 306.969 596.882 306.969C543.482 306.969 498.052 315.736 460.593 333.27C423.93 350.007 395.636 373.918 375.711 405.001C356.583 436.085 347.019 472.349 347.019 513.793C347.019 556.035 356.583 592.697 375.711 623.781C395.636 654.067 423.93 677.978 460.593 695.512C497.255 712.249 541.091 720.618 592.1 720.618C629.559 720.618 663.432 714.242 693.719 701.489C724.005 687.94 751.103 671.601 775.014 652.473L847.94 763.656C808.887 798.725 765.051 824.229 716.433 840.169C667.816 855.313 619.995 862.884 572.971 862.884Z" fill="#1D293D"></path>
</svg><style>@media (prefers-color-scheme: light) { :root { filter: none; } }
@media (prefers-color-scheme: dark) { :root { filter: invert(100%); } }
</style></svg>